<?xml version="1.0" encoding="utf-8"?>
<!-- Generator: Adobe Illustrator 23.1.1, SVG Export Plug-In . SVG Version: 6.00 Build 0)  -->
<svg version="1.1" id="Layer_1" xmlns="http://www.w3.org/2000/svg" xmlns:xlink="http://www.w3.org/1999/xlink" x="0px" y="0px"
	 viewBox="0 0 864.41 106.04" style="enable-background:new 0 0 864.41 106.04;" xml:space="preserve">
<g>
	<path d="M364.56,2.47c6.33,0,11.73,0,17.72,0c10.5,26.88,21.07,53.93,32.23,82.5c4.83-12.67,9.26-24,13.37-35.46
		c0.48-1.33-0.72-3.34-1.34-4.96c-4.79-12.37-9.63-24.72-14.44-37.09c-0.56-1.44-0.97-2.93-1.6-4.85c6.03,0,11.53,0,17.4,0
		c2.95,7.45,5.94,14.99,9.36,23.61c3.4-8.56,6.41-16.16,9.44-23.78c5.76,0,11.17,0,17.65,0c-6.18,15.84-12.17,31.21-18.21,46.71
		c4.47,11.44,8.93,22.85,13.93,35.67c11.03-28.25,21.56-55.19,32.14-82.28c5.76,0,11.29,0,17.73,0
		c-13.29,34.07-26.43,67.75-39.62,101.57c-6.87,0-13.37,0-20.49,0c-3.97-10.11-8.03-20.46-12.56-32
		c-4.47,11.38-8.51,21.67-12.59,32.06c-6.8,0-13.32,0-20.45,0C391.16,70.66,378,36.93,364.56,2.47z"/>
	<path d="M198.13,3.06c14.45,0,28.73-1.09,42.75,0.35c11.13,1.14,18.29,9.31,21.42,20.18c2.92,10.15-0.15,18.56-8.72,25.2
		c0.45,0.52,0.74,1.08,1.2,1.36c11.33,6.9,15.77,16.99,12.86,29.79c-2.88,12.69-11.06,21.84-23.87,23.19
		c-14.96,1.57-30.21,0.37-45.63,0.37C198.13,70.05,198.13,36.61,198.13,3.06z M214.74,87.91c8.31,0,16.14,0.39,23.9-0.11
		c7.47-0.48,12.77-6.78,12.91-14.18c0.14-7.4-4.97-14.21-12.25-14.78c-8.05-0.62-16.18-0.14-24.56-0.14
		C214.74,68.49,214.74,77.98,214.74,87.91z M214.76,18.55c0,8.2,0,15.76,0,23.3c0.76,0.2,1.21,0.41,1.66,0.41
		c6.06,0.03,12.12,0.13,18.17,0.02c6.8-0.12,11.9-5.2,12-11.72c0.1-6.33-4.64-11.65-11.25-11.95
		C228.68,18.32,221.99,18.55,214.76,18.55z"/>
	<path d="M783.27,2.84c5.38,0,10.44,0,16.15,0c0,13.7,0,27.34,0,41.3c16.37,0,32.11,0,48.35,0c0-13.62,0-27.14,0-41.11
		c5.78,0,11.07,0,16.65,0c0,33.52,0,66.88,0,100.64c-5.33,0-10.5,0-16.3,0c0-14.12,0-28.25,0-42.72c-16.35,0-32.08,0-48.42,0
		c0,14.2,0,28.33,0,42.79c-5.76,0-10.93,0-16.43,0C783.27,70.17,783.27,36.81,783.27,2.84z"/>
	<path d="M125.62,2.41c7.12,0,13.5,0,20.42,0c13.13,33.66,26.28,67.38,39.64,101.64c-6.18,0-11.68,0-17.71,0
		c-3.23-8.21-6.56-16.65-9.96-25.31c-14.73,0-29.4,0-44.34,0c-3.33,8.48-6.65,16.92-9.99,25.41c-5.84,0-11.35,0-17.71,0
		C99.29,69.94,112.43,36.24,125.62,2.41z M135.83,21.78c-5.69,14.61-10.87,27.93-16.23,41.7c11.07,0,21.4,0,32.47,0
		C146.71,49.71,141.52,36.39,135.83,21.78z"/>
	<path d="M375.08,104.14c-6.32,0-11.69,0-17.67,0c-3.31-8.33-6.7-16.88-10.12-25.48c-14.81,0-29.32,0-44.24,0
		c-3.32,8.44-6.63,16.87-10.01,25.46c-5.74,0-11.27,0-17.71,0C288.6,70.08,301.72,36.4,314.91,2.55c6.71,0,13.21,0,20.53,0
		C348.46,35.91,361.61,69.62,375.08,104.14z M341.44,63.48c-5.47-14.01-10.63-27.25-16.26-41.67c-5.7,14.64-10.88,27.94-16.22,41.67
		C319.92,63.48,330.23,63.48,341.44,63.48z"/>
	<path d="M600.22,104.2c-6.31,0-11.7,0-17.72,0c-3.24-8.23-6.55-16.66-9.98-25.38c-14.65,0-29.3,0-44.39,0
		c-3.27,8.28-6.59,16.7-9.99,25.31c-5.7,0-11.21,0-17.69,0c13.31-34.16,26.44-67.84,39.6-101.62c6.83,0,13.34,0,20.5,0
		C573.62,36.02,586.78,69.73,600.22,104.2z M566.54,63.45c-5.35-13.74-10.53-27.02-16.22-41.64c-5.67,14.54-10.88,27.87-16.25,41.64
		C545.33,63.45,555.61,63.45,566.54,63.45z"/>
	<path d="M21.29,60.55c-1.85,2.25-3.25,3.96-5.39,6.57c0,11.38,0,23.97,0,36.92c-5.44,0-10.45,0-15.9,0C0,70.33,0,36.69,0,2.63
		c5.02,0,10.04,0,15.88,0c0,12.81,0,25.75,0,40.08C30.03,28.32,43.09,15.04,55.37,2.55c8.67,0,15.79,0,22.44,0
		c-14.9,15.05-29.89,30.21-45.33,45.81C48.64,67.2,64.16,85.29,80.3,104.1c-7.74,0-14.39,0-21.58,0C46.6,90,34.22,75.59,21.29,60.55
		z"/>
	<path d="M757.47,74.32c4.22,3.28,8.23,6.39,12.21,9.48c-9.39,16.49-34.41,25.86-55.37,20.92c-22.74-5.36-39.31-25.21-40.39-48.39
		c-1.15-24.63,12.91-45.76,35.55-53.45c21.66-7.35,46.18-0.3,58.42,17.08c-3.81,3.27-7.65,6.57-11.44,9.83
		c-25.05-17.98-43.73-17.94-57.94-0.03c-12.27,15.46-10.39,38.92,4.15,51.74C718.44,95.42,739.01,92.88,757.47,74.32z"/>
	<path d="M622.12,18.43c-10.93,0-21.08,0-31.52,0c0-5.4,0-10.26,0-15.5c26.43,0,52.7,0,79.28,0c0,5.05,0,9.92,0,15.33
		c-10.25,0-20.41,0-31.18,0c0,28.72,0,56.92,0,85.46c-5.79,0-10.96,0-16.58,0C622.12,75.48,622.12,47.39,622.12,18.43z"/>
</g>
</svg>
